PathFileType	4	(X/Y/Z)	C:/Users/beibeiliu/ov580/test_trc/User2\sequence.20_training_dense_left.trc
DataRate	CameraRate	NumFrames	NumMarkers	Units	OrigDataRate	OrigDataStartFrame	OrigNumFrames
120	120	23	19	mm	120	199	318
Frame#	Time	ThumbCMC			ThumbMCP			ThumbIP			ThumbTip			IndexMCP			IndexPIP			IndexTip			MiddleMCP			MiddlePIP			MiddleTip			RingMCP			RingPIP			RingTip			PinkyMCP			PinkyPIP			PinkyTip			BackHand1			BackHand2			BackHand3	
		X0	Y0	Z0	X1	Y1	Z1	X2	Y2	Z2	X3	Y3	Z3	X4	Y4	Z4	X5	Y5	Z5	X6	Y6	Z6	X7	Y7	Z7	X8	Y8	Z8	X9	Y9	Z9	X10	Y10	Z10	X11	Y11	Z11	X12	Y12	Z12	X13	Y13	Z13	X14	Y14	Z14	X15	Y15	Z15	X16	Y16	Z16	X17	Y17	Z17	X18	Y18	Z18	
198	1.65	-128.197	-41.5082	74.78	-125.945	-54.9506	41.9424	-145.735	-66.7259	14.2825	-178.453	-66.5603	11.3846	-156.242	-26.3837	-4.36474	-161.057	-27.4628	-33.0241	-173.697	-26.943	-56.9224	-181.553	-25.5733	-14.0017	-187.582	-29.4106	-42.184	-190.996	-28.0501	-70.648	-201.455	-28.0913	-1.21796	-206.209	-31.7339	-28.8195	-205.478	-32.7471	-53.5905	-215.358	-35.321	19.3788	-218.878	-37.4262	-6.34594	-220.705	-32.6493	-27.9331	-195.811	-15.2233	51.7907	-189.282	-9.28491	85.889	-157.243	-10.8003	66.3024	
199	1.65833	-134.988	-43.776	71.4359	-130.184	-58.9717	40.9659	-153.957	-73.6327	13.8503	-180.426	-75.6991	16.232	-163.809	-35.3354	-7.30822	-168.987	-40.4868	-31.7461	-177.391	-42.4991	-58.2447	-183.157	-35.9057	-13.18	-191.519	-43.8419	-37.1353	-200.459	-45.4772	-65.205	-202.904	-38.2038	-0.827091	-208.097	-45.0149	-25.207	-213.922	-48.5981	-53.5577	-220.025	-43.3306	16.1796	-220.99	-48.5168	-2.94245	-227.717	-46.9881	-25.9334	-194.081	-21.3592	51.8915	-191.492	-10.1973	84.8588	-155.984	-13.8726	59.5142	
200	1.66667	-134.474	-44.8549	70.0733	-131.266	-63.2315	40.9818	-154.39	-81.0786	16.2801	-183.763	-80.8054	21.414	-167.983	-43.1221	-7.98485	-171.484	-49.7802	-30.5551	-181.222	-56.057	-57.8854	-190.173	-43.9806	-7.35352	-193.955	-54.7474	-39.5611	-207.432	-61.3785	-63.5536	-204.248	-46.2835	2.78004	-213.193	-54.7139	-20.7708	-216.873	-61.8683	-50.3059	-219.967	-50.9087	22.5279	-225.246	-58.163	-1.18234	-232.468	-56.4854	-25.5327	-198.712	-24.4243	56.1606	-194.401	-11.6105	85.2108	-162.684	-15.5123	63.2731	
201	1.675	-134.118	-44.2129	70.1869	-127.035	-66.2949	42.7381	-151.477	-83.2109	21.0143	-182.759	-87.4273	21.7074	-169.263	-48.7055	-3.90012	-177.088	-58.1341	-32.2282	-184.393	-66.72	-53.2154	-188.645	-50.0434	-9.02712	-197.445	-64.6062	-37.4587	-208.116	-72.0195	-61.4861	-211.439	-52.5055	1.20536	-218.023	-63.7776	-22.0541	-222.588	-72.0624	-49.3028	-223.824	-55.3378	22.7267	-229.874	-64.3537	-2.34598	-233.686	-68.1631	-22.7549	-201.268	-26.9625	51.7717	-192.962	-11.146	84.4899	-163.059	-15.5956	61.9443	
202	1.68333	-134.38	-39.696	76.0102	-132.438	-59.8794	45.5502	-151.973	-81.1276	24.3268	-181.002	-90.0697	22.7953	-165.236	-50.6453	-1.71731	-172.589	-62.2082	-29.885	-183.889	-74.1697	-49.8277	-187.285	-54.1211	-5.64594	-193.648	-70.1694	-35.3597	-207.06	-81.1881	-56.6399	-205.641	-57.2551	3.05795	-211.29	-68.7072	-17.1764	-216.813	-81.0045	-43.0357	-221.744	-61.2144	22.2534	-226.33	-70.1657	3.74821	-231.158	-76.1255	-20.6038	-200.325	-29.7323	52.1843	-195.864	-10.5586	81.1546	-166.275	-18.1242	58.5701	
203	1.69167	-135.142	-33.0221	73.4324	-127.889	-55.8769	45.2286	-146.784	-80.1539	24.2765	-174.273	-87.2346	27.7375	-166.434	-51.2444	-0.716801	-167.828	-63.1478	-24.9778	-178.845	-78.6172	-47.453	-186.157	-57.002	-3.50402	-188.895	-74.4586	-30.8921	-195.638	-88.9724	-55.5132	-207.088	-62.1768	6.12123	-208.21	-77.2392	-19.7488	-214.112	-89.5145	-43.9121	-218.715	-64.8324	28.1285	-221.319	-77.6614	2.52621	-222.605	-85.1116	-17.2959	-204.92	-31.3053	52.8061	-204.383	-10.8614	82.9047	-166.023	-14.8738	58.9122	
204	1.7	-139.117	-25.4616	75.4236	-124.703	-46.2102	48.2259	-138.679	-71.8973	31.4943	-168.915	-85.7827	29.0433	-159.568	-50.0405	-4.26917	-166.562	-65.5928	-24.6378	-170.409	-82.0233	-48.0458	-183.995	-58.0502	-3.58431	-183.864	-75.1805	-26.9223	-190.064	-93.7745	-51.967	-198.828	-63.6913	5.59063	-200.725	-81.1572	-18.5279	-202.731	-94.1378	-38.6551	-214.439	-67.5203	27.6514	-214.567	-82.0326	4.38219	-216.937	-91.4952	-17.2136	-201.329	-29.4049	52.8548	-202.62	-10.6703	80.2775	-170.521	-9.43363	59.932	
205	1.70833	-135.098	-17.0407	75.6585	-119.907	-36.9223	52.7243	-135.268	-65.8504	29.9678	-157.968	-82.7235	27.3025	-155.516	-43.7346	1.02129	-153.859	-60.0884	-25.3568	-159.042	-77.9089	-45.4249	-174.175	-54.4904	-4.47215	-175.575	-74.8963	-27.3386	-175.964	-94.129	-53.4316	-195.223	-65.5849	2.55587	-193.081	-81.5565	-18.4126	-186.691	-93.6885	-38.7291	-205.537	-68.898	21.8866	-204.867	-84.1779	3.32435	-201.538	-91.3304	-17.3554	-200.879	-27.7147	51.0857	-208.478	-12.6132	80.561	-173.233	-6.75253	60.5337	
206	1.71667	-136.412	-11.8938	76.2117	-118.548	-28.95	53.3284	-128.468	-57.1503	31.7628	-152.572	-76.9748	25.453	-152.672	-38.7716	0.314761	-147.189	-54.512	-26.9237	-147.146	-71.3989	-47.1806	-166.885	-50.9112	-6.41361	-166.523	-71.4602	-29.2209	-161.37	-88.007	-53.4766	-187.734	-61.7142	3.69456	-181.358	-77.0969	-19.1536	-176.251	-95.4555	-42.4236	-199.428	-68.1466	24.5612	-193.427	-82.6937	0.40449	-188.126	-91.4828	-23.9873	-197.727	-26.7168	49.7103	-208.394	-11.2898	80.6897	-169.827	-3.8178	58.7345	
207	1.725	-137.004	-5.62317	79.4458	-114.837	-21.1351	54.8361	-120.802	-49.1089	28.868	-140.212	-70.4778	22.3013	-145.742	-30.7806	-2.17267	-139.514	-44.3524	-25.0633	-137.395	-62.6375	-45.5914	-162.255	-45.5476	-7.59539	-156.889	-62.739	-30.5947	-152.008	-81.3025	-56.7156	-176.095	-55.8021	0.153222	-174.422	-73.5283	-19.5626	-162.097	-87.5321	-41.5973	-194.171	-67.9198	18.773	-187.169	-80.2381	-2.83476	-178.893	-91.9303	-25.2668	-194.848	-25.6366	50.2714	-206.2	-11.1543	76.3209	-171.758	0.546724	62.8792	
208	1.73333	-135.762	-1.80759	83.1518	-115.394	-15.0609	56.6564	-113.67	-42.3059	29.508	-136.207	-65.4905	22.1179	-142.354	-25.4217	-0.484467	-132.114	-36.2472	-26.3724	-128.807	-54.7574	-45.5534	-157.541	-38.7968	-6.03996	-146.579	-56.2279	-31.5521	-140.642	-76.2829	-59.0154	-174.192	-53.0291	0.0925697	-160.083	-67.1161	-23.9522	-149.565	-83.1905	-45.6912	-183.27	-61.8958	16.6101	-173.636	-76.6326	-6.68797	-166.992	-84.3247	-23.5549	-192.573	-24.6295	51.5999	-205.428	-12.6121	78.0046	-172.208	1.38345	62.6931	
209	1.74167	-136.65	2.25139	84.3178	-112.115	-8.11732	61.3657	-111.745	-36.2608	30.5801	-128.759	-57.3936	23.9196	-137.261	-17.3533	3.65378	-128.08	-32.0494	-22.4952	-121.391	-51.0438	-44.3856	-152.735	-35.5665	-5.71536	-139.155	-51.908	-31.8785	-125.821	-66.5246	-56.0253	-165.035	-47.0592	0.618734	-152.979	-60.4045	-21.4307	-137.446	-77.1159	-44.2373	-178.847	-62.2384	15.9689	-167.835	-74.8563	-5.64943	-154.189	-82.4922	-27.1037	-191.828	-23.2789	49.093	-201.17	-10.7283	73.3109	-173.4	5.72103	63.6183	
210	1.75	-137.882	7.10498	83.1708	-112.653	-3.40192	63.3909	-109.651	-28.9668	36.1477	-123.916	-53.1749	23.6583	-130.585	-11.7324	1.78766	-119.34	-25.3167	-22.2906	-113.276	-43.9473	-39.7886	-144.498	-31.7583	-5.28986	-130.442	-44.964	-25.2521	-116.911	-64.7155	-53.4138	-159.973	-47.4595	0.677126	-144.785	-56.979	-17.7065	-128.181	-71.4487	-39.3907	-174.865	-59.9191	16.8599	-159.257	-71.0436	-4.54203	-144.605	-76.0662	-23.8275	-189.861	-19.3209	50.4807	-204.156	-11.6758	78.5158	-170.254	7.80736	61.5688	
211	1.75833	-139.598	9.17247	87.3904	-114.058	1.15084	63.7505	-104.925	-23.2557	36.4772	-117.137	-45.5306	28.0189	-127.099	-6.20426	3.64247	-117.413	-19.5667	-16.8253	-106.667	-37.8889	-39.7873	-142.139	-26.8492	-2.34667	-125.338	-39.0946	-23.0769	-110.179	-57.3821	-50.2859	-154.115	-43.3975	-1.22693	-139.059	-53.0611	-20.255	-120.563	-65.4052	-40.7206	-167.163	-55.1369	14.5918	-153.033	-64.4668	-1.75448	-138.925	-68.6452	-21.5851	-188.766	-20.9529	47.5843	-202.7	-12.1421	74.5164	-169.775	13.6996	63.3514	
212	1.76667	-134.797	16.2286	90.2494	-107.206	8.87992	68.8219	-103.291	-16.5203	38.2266	-115.064	-39.2066	28.0138	-125.244	0.420293	7.13567	-114.209	-8.86365	-14.7915	-102.842	-23.5246	-37.6578	-136.517	-14.7025	1.32591	-123.167	-32.0652	-24.0917	-105.544	-42.7224	-49.0459	-151.844	-32.4746	1.6282	-134.86	-42.8101	-20.6168	-120.579	-51.659	-38.9509	-165.929	-46.7202	19.1692	-150.811	-54.8943	-3.69744	-138.629	-62.1219	-23.1517	-186.833	-16.5215	50.7497	-202.988	-7.05502	77.9205	-169.617	12.1548	66.0536	
213	1.775	-135.517	13.33	95.9608	-104.027	10.0051	71.7025	-103.113	-9.9967	40.0445	-117.029	-31.8961	21.7108	-124.066	8.87582	8.42852	-112.486	3.4815	-13.4193	-106.669	-9.62689	-35.5687	-134.493	-5.85827	-2.43731	-122.394	-14.6573	-23.5154	-110.189	-26.7592	-50.6373	-152.599	-20.6179	1.19927	-137.519	-26.98	-21.6502	-122.215	-32.3396	-41.8303	-164.42	-35.3107	15.0918	-149.784	-39.8676	-7.74975	-140.191	-43	-30.6421	-184.754	-8.56576	51.2557	-198.837	-2.5242	79.8655	-164.509	20.2593	74.1047	
214	1.78333	-129.57	13.793	98.7968	-104.062	10.8383	71.3129	-102.58	-5.09106	38.5368	-115.653	-22.2834	23.1543	-122.37	21.567	12.758	-115.282	15.7885	-11.4099	-105.953	9.16148	-39.0971	-136.392	9.53516	2.96684	-120.199	3.6825	-26.7514	-110.22	-3.55022	-54.426	-154.943	-6.33372	1.56264	-144.212	-9.71404	-21.1233	-129.109	-13.5328	-48.2553	-168.162	-21.3363	13.4236	-155.269	-24.2144	-12.5603	-146.392	-23.4592	-35.7397	-181.086	4.37821	52.6851	-193.543	6.43355	83.7937	-162.112	25.6504	76.9664	
215	1.79167	-126.359	11.2981	97.7767	-101.78	11.6398	72.8653	-101.823	-0.353395	37.6101	-116.353	-14.5242	20.8818	-124.06	28.5347	20.394	-117.775	28.7782	-7.5065	-112.08	25.2757	-34.7418	-138.462	19.8667	1.71876	-126.955	18.1054	-22.9706	-117.26	16.3328	-57.1927	-153.933	9.05109	0.269805	-149.185	5.36179	-21.9443	-134.72	7.64564	-46.281	-171.64	-9.06226	11.1462	-160.888	-8.78915	-10.0116	-152.232	-3.77068	-34.5479	-180.224	9.25598	56.4742	-190.695	13.9272	89.4429	-155.99	29.6013	79.4415	
216	1.8	-124.799	9.04416	101.601	-101.396	11.1143	70.2703	-101.009	3.02388	36.6976	-121.966	-8.54477	17.9694	-122.888	35.6721	21.0596	-118.152	38.5963	-9.48648	-114.46	40.0219	-33.7939	-137.1	30.3415	7.59801	-128.7	32.056	-24.7609	-125.592	31.2016	-56.4187	-157.099	17.0758	6.32214	-150.943	17.8861	-21.6954	-138.784	23.0974	-47.7912	-171.524	1.85943	13.8833	-164.461	2.60704	-8.74998	-156.043	10.8029	-32.1968	-176.3	17.8368	59.4361	-189.752	14.896	88.3029	-153.418	29.5892	82.9234	
217	1.80833	-119.082	9.53553	96.7124	-99.9852	10.1616	68.0315	-102.25	2.67746	35.6913	-124.523	-6.39424	17.8609	-121.674	39.4336	20.0988	-119.93	43.6161	-4.07155	-115.142	48.9987	-32.8017	-138.763	36.6213	3.48584	-132.014	39.5759	-22.7982	-129.613	44.0961	-53.7675	-157.971	24.4273	3.51895	-155.483	26.5881	-20.1434	-142.29	35.0928	-48.0877	-175.299	6.29242	15.6881	-171.043	10.1169	-10.063	-160.471	19.5627	-33.7264	-175.903	21.7859	60.3929	-187.198	16.9032	91.6501	-151.235	30.0158	83.5809	
218	1.81667	-120.386	5.01615	93.8427	-99.7769	5.56021	67.6031	-105.873	1.98264	31.0715	-128.798	-6.67531	13.1848	-124.123	38.807	21.0396	-122.066	45.662	-4.27715	-118.19	54.0095	-32.7234	-142.997	39.0198	4.24098	-137.714	42.3359	-21.9947	-133.341	51.1293	-54.3614	-162.903	27.3788	6.46547	-155.643	34.347	-20.4517	-149.841	40.1876	-44.7491	-181.346	9.88377	15.8525	-170.13	17.5869	-9.95004	-165.152	28.7647	-31.7354	-177.174	21.9946	61.1469	-188.408	19.2307	90.6246	-151.731	29.4738	85.6511	
219	1.825	-122.345	-1.10366	91.6109	-100.159	-0.111153	63.5978	-110.309	-1.19954	24.6071	-132.264	-9.7276	11.9739	-125.404	37.1769	20.7497	-125.169	45.8232	-5.19941	-121.351	56.1004	-35.6213	-144.8	37.5241	6.4693	-142.463	44.6092	-22.2459	-138.966	54.8253	-52.2767	-164.36	30.3301	3.05114	-158.386	35.7814	-17.2638	-153.229	46.8938	-45.4131	-180.65	12.6706	16.2701	-178.644	19.8298	-8.27454	-169.491	30.8833	-28.0537	-178.688	19.7202	59.8436	-185.907	19.531	91.7368	-150.77	25.7152	81.507	
220	1.83333	-122.279	-7.41216	89.6706	-103.627	-7.27577	59.111	-111.254	-9.15062	21.825	-141.087	-12.4436	9.62784	-128.945	32.3935	17.792	-125.961	43.3396	-9.28035	-124.156	53.5341	-32.1835	-145.34	34.8989	7.1351	-141.674	44.4308	-22.8679	-139.634	56.661	-53.3149	-168.439	30.5107	3.55521	-166.438	36.0654	-18.3738	-158.671	46.1852	-43.2475	-187.73	15.8677	13.0219	-182.804	21.7894	-6.72638	-173.467	33.9747	-28.9965	-182.745	18.163	58.1724	-183.764	15.6427	90.1294	-148.162	21.917	80.281	
